#N canvas 1410 1685 935 611 12;
#X obj 492 100 ctlin;
#X floatatom 491 197 5 0 0 0 - - -;
#X floatatom 523 167 5 0 0 0 - - -;
#X floatatom 523 141 5 0 0 0 - - -;
#N canvas 2779 1111 1161 168 (subpatch) 0;
#X array midi-buffer 500 float 4;
#X coords 0 0 499 160 300 100 1 0 0;
#X restore 43 57 graph;
#X obj 491 349 tabwrite midi-buffer;
#X floatatom 628 265 5 0 0 0 - - -;
#X msg 628 238 1;
#X obj 628 265 +;
#X obj 628 216 bng 15 250 50 0 empty empty empty 17 7 0 10 -262144
-1 -1;
#X msg 662 292 0;
#X text 668 266 midi-buffer x index;
#X obj 696 292 moses 500;
#X obj 299 430 dac~;
#X obj 341 281 * 10;
#X obj 284 342 osc~ 440;
#X obj 87 193 vsl 15 128 0 127 0 0 empty empty empty 0 -9 0 10 -262144
-1 -1 8400 1;
#X obj 164 281 *~;
#X connect 0 0 1 0;
#X connect 0 1 2 0;
#X connect 0 2 3 0;
#X connect 1 0 5 0;
#X connect 1 0 9 0;
#X connect 1 0 14 0;
#X connect 6 0 8 1;
#X connect 6 0 5 1;
#X connect 6 0 12 0;
#X connect 7 0 8 0;
#X connect 8 0 6 0;
#X connect 9 0 7 0;
#X connect 10 0 6 0;
#X connect 12 1 10 0;
#X connect 14 0 15 0;
#X connect 15 0 17 1;
#X connect 15 0 13 1;
#X connect 16 0 17 0;
#X connect 17 0 13 0;
