#N canvas 2828 422 1020 619 12;
#X obj 639 23 ctlin;
#X floatatom 638 120 5 0 0 0 - - -;
#X floatatom 670 90 5 0 0 0 - - -;
#X floatatom 670 64 5 0 0 0 - - -;
#N canvas 2779 1111 1161 168 (subpatch) 0;
#X array midi-buffer 500 float 4;
#X coords 0 0 499 128 300 100 1 0 0;
#X restore 43 106 graph;
#X obj 638 272 tabwrite midi-buffer, f 25;
#X floatatom 809 189 5 0 0 0 - - -;
#X msg 775 161 1;
#X obj 775 188 +;
#X obj 775 139 bng 15 250 50 0 empty empty empty 17 7 0 10 -262144
-1 -1;
#X msg 809 217 0;
#X text 852 188 midi-buffer x index;
#X obj 843 217 moses 500;
#X obj 531 235 dac~;
#X obj 574 139 * 10;
#X obj 347 108 vsl 15 95 0 1 0 0 empty empty empty 0 -9 0 10 -262144
-1 -1 0 1;
#X obj 555 206 *~;
#X text 369 190 Volume;
#N canvas 0 50 450 250 (subpatch) 0;
#X array dump 500 float 4;
#X coords 0 0 500 128 300 100 1 0 0;
#X restore 43 237 graph;
#X obj 347 322 bng 15 250 50 0 empty empty empty 17 7 0 10 -262144
-1 -1;
#X obj 347 343 array get midi-buffer;
#X obj 347 369 array set dump;
#X obj 574 172 osc~;
#X msg 638 150 127 \$1;
#X obj 638 177 -, f 1;
#X text 650 176 Invert y axis;
#X text 367 319 Freeze-frame;
#X connect 0 0 1 0;
#X connect 0 1 2 0;
#X connect 0 2 3 0;
#X connect 1 0 9 0;
#X connect 1 0 14 0;
#X connect 1 0 23 0;
#X connect 6 0 8 1;
#X connect 6 0 5 1;
#X connect 6 0 12 0;
#X connect 7 0 8 0;
#X connect 8 0 6 0;
#X connect 9 0 7 0;
#X connect 10 0 6 0;
#X connect 12 1 10 0;
#X connect 14 0 22 0;
#X connect 15 0 16 0;
#X connect 16 0 13 0;
#X connect 16 0 13 1;
#X connect 19 0 20 0;
#X connect 20 0 21 0;
#X connect 22 0 16 1;
#X connect 23 0 24 0;
#X connect 24 0 5 0;
